<svg xmlns="http://www.w3.org/2000/svg" xmlns:xlink="http://www.w3.org/1999/xlink" width="1920" height="1080" viewBox="0 0 1920 1080">
  <defs>
    <clipPath id="clip-_2_Tears">
      <rect width="1920" height="1080"/>
    </clipPath>
  </defs>
  <g id="_2_Tears" data-name="2_Tears" clip-path="url(#clip-_2_Tears)">
    <rect width="1920" height="1080" fill="#fff"/>
    <path id="Path_26437" data-name="Path 26437" d="M1574.567,1984.057c-1.662-41.374-.024-83.106.526-124.583.015-1.13.009-2.258.02-3.387-3.663-.895-7.308-1.862-10.815-2.62a86.771,86.771,0,0,1-13.988-4.091c-.115,3.367-.269,6.728-.375,10.1-1.283,40.574-1.479,81.543-4.4,121.733-1.508,20.767-1.908,41.724-2.442,62.723-.56,22.045-2.085,43.884-1.848,65.979.523,48.854,34.6,48.913,35.17,0,.247-21.119-1.023-42.01-1.148-63.12-.124-20.928.135-41.922-.7-62.732" transform="translate(-457.431 -1500.972)" fill="#ff0074"/>
    <path id="Path_26438" data-name="Path 26438" d="M776.475,2202.758c-1.827-33.3-5.589-66.18-8.732-99.176-2.692-28.266-5.59-57.355-2.5-85.836,3.181-29.355,9.677-57.469,12.167-87.039-8.177-1.047-16.33-2.441-24.477-3.895-1.346,6.887-2.825,13.719-4.106,20.445-2.64,13.867-5.569,27.586-7.986,41.563a390.519,390.519,0,0,0-4.845,92.859c2.07,32.016,5.781,63.664,8.141,95.613a711.887,711.887,0,0,1,.67,100.559c-4.948,74.008-3.849,148.559-5.449,222.852-.807,37.465,36.316,37.527,35.505,0-1.414-65.457-2.923-130.609-.082-196.062,1.487-34.266,3.585-67.5,1.7-101.883" transform="translate(66.524 -1687.224)" fill="#ff0074"/>
  </g>
</svg>
