<svg xmlns="http://www.w3.org/2000/svg" width="185.49" height="214.155" viewBox="0 0 185.49 214.155">
  <path id="Path_26931" data-name="Path 26931" d="M262.423,214.687a8.62,8.62,0,0,0,.245,1.164c1.375,4,4.159,6.688,7.748,8.781,4.185,2.443-5,5.051.56,9.192,5.191,3.878,3.843,7.056-2.679,9-9.805,2.915-19.829,5.06-29.757,7.529a13.443,13.443,0,0,1-7.258.053c-.779.07-1.55.131-2.32.219-4.089,2.057-7.993,3.318-10.366-2.39a1.452,1.452,0,0,1-1.795-.394c-1.567.735-4.106-.28-4.552,2.5l-.009.009c-.324.044-.464.228-.718.333a2.167,2.167,0,0,0-1.339,1.269,3.083,3.083,0,0,0-.35,1.156,1.367,1.367,0,0,0-1.2,1.068c-1.2,1.042-2.4,2.075-3.581,3.108l-.079-.044a5.18,5.18,0,0,0-.753-1.033c-.718-.805-1.226-.552-1.593.56a5.587,5.587,0,0,0-.271.972c-.709.84-1.4,1.7-2.119,2.556-1.847,8.562,1.961,15.969,4.955,23.524a3.04,3.04,0,0,1,2.39,2.513c3.2,4.719,7.266,7.205,13.368,8a160.546,160.546,0,0,0,23.594,1.506c.543-2.7-3.6-6.855,2.39-7.4,3.484-.324,5.367-3.362,8.343-4.43v.044c6.785-3.94,15.023-4.167,21.642-9.1,2.793-2.075,5.183,1.059,6.549,5.016,1.62,4.649-1.252,8.343-.508,12.764,1.943,11.434,3.09,22.981,7.512,33.924,1.584,3.9,3.546,8.037,1.234,12.651-1.9,3.782,1.2,6.82,2.329,10.129.376.053.753.1,1.12.149,1.62.219,4.719-1.007,4.211,1.707-.656,3.441-3.038.788-4.833.552a2.827,2.827,0,0,1-.446.5c.017,3.231.175,6.426,2.74,8.9-.088.481-.088.937-.14,1.4A26,26,0,0,0,299.2,377.91l.026.088a13.1,13.1,0,0,1,1.751.665c5.883,7.739,5.9,7.748,14.165,3.957l.026-.009c1.611-6.461-1.331-12.615-1.313-18.963a15.732,15.732,0,0,1-.035-2.031c3.012-2.583,1.576-7.144,4.342-9.832.053-.8.088-1.6.123-2.4.447-11.451-4.36-22.517-2.39-34.091.245-1.427.079-3.4-1.838-3.9-6.934-1.83-4.465-2.513.28-3.406a23.167,23.167,0,0,0,1.76-2.39,3.533,3.533,0,0,0-.254-1.471c-4.281-9.271.473-19.015-2.057-28.707-3.038-11.688.7-16.861,11.32-22.7a57.848,57.848,0,0,1,14.436-5.192h.018v.053c7.091-6.741,15.4-11.854,23.2-17.623,8.571-6.339,15.093-15.417,22.482-23.314-.052,0-.061.035-.105.035-3.344-4.176-.42-9.376-2.259-13.806-7.31-5.463-14.6-10.155-24.7-8.168-6.435,1.261-8.947,4.6-9.612,10.532-1.007,9.149-6.172,14.638-15.662,16.914v-.017c-.954,1.961-2.793,2.364-4.684,2.679-1.138,2.294-3.125,2.206-5.218,1.821a1.021,1.021,0,0,1-1.558.368,3.292,3.292,0,0,1-1.007,1.812h-.017c-.849.175-1.655.411-2.469.639a15.753,15.753,0,0,0-8.991,5.743c-.193.254-.429.446-.613.727l.131.35a9.812,9.812,0,0,1-5.121-.018c-1.226-.464-2.267-1.453-2.959-3.572-.753-2.346-2.547-3.038-4.535-2.3a7.007,7.007,0,0,0-1.847,1.051c-2.565-4.526-5.025-9.087-2.11-14.428a1.949,1.949,0,0,1-.385-2.171c-2.1-2.083-1.926-4.876-2.3-7.512l-.018-.017c-1.182-1.007-3.458-2.127-3.371-2.994.9-8.763-4.482-14.673-8.982-21.029a2.088,2.088,0,0,1-2.136-.2c-1.567.237-3.161.482-4.736.709-.061-.3-.149-.6-.219-.91-.14-.622-.289-1.252-.437-1.865h-.009a2.4,2.4,0,0,1-1.506-.079v.009c-1.55,1.173-3.117,2.373-4.684,3.572-.236.184-.5.376-.735.56-2.985,1.69-4.868,4.054-4.684,7.643l.088-.105-.105.228.017-.122c-4.631,3.677-3.537,9.394-4.981,14.191,4.071,5.463,8.326,10.83,9.7,17.772m68.943,18.989c1.348.5,3.161.622,2.836,2.74a2.35,2.35,0,0,1-2.3,2.022c-1.558.149-3.143-.07-3.406-1.891-.271-1.935,1.436-2.373,2.872-2.872M296.461,271.9c-1.094-.376-2.337-.8-1.873-2.381.341-1.191,1.077-2.127,2.495-1.8a2.024,2.024,0,0,1,1.795,2.477c-.411,1.121-.884,2.233-2.416,1.707m6.776,10.138c.6,0,1.2.665,1.795,1.051-.63.368-1.226,1.033-1.865,1.051-.525.035-1.094-.665-1.655-1.033.578-.385,1.156-1.077,1.725-1.068m-1.409-15.653c-.061-.149.21-.438.324-.657.245,0,.56-.087.709.018.6.447.464.954-.4,1.322-.1.044-.516-.4-.63-.683m6.3,99.383c.77,4.631-.727,7.477-6.741,6.759l-.07.088.009-.088c-2.1-3.161-1.357-5.524.709-7.5A13.914,13.914,0,0,1,303.9,363.5c1.339.237,2.67.473,4,.7a13.025,13.025,0,0,1,.228,1.567m11.5-125.718c-.376-.245-.771-.49-1.164-.744.28-.236.534-.49.788-.727.245.271.49.525.744.805-.105.184-.228.438-.368.665m-41.34-9.805c.061.289.149.6.219.91l-.438.8a1.311,1.311,0,0,1,.219-1.707M270.1,177.033c1.593.648,2.819,1.707,2.171,3.537-.5,1.418-1.611,1.383-2.539.175.123-1.243.245-2.478.368-3.712" transform="translate(-199.753 -170.94)" fill="#ffff02"/>
</svg>
